<svg width="160" height="160" viewBox="0 0 160 160" fill="none" xmlns="http://www.w3.org/2000/svg">
  <circle cx="80" cy="80" r="76" fill="#F7FBFF"/>
  <circle cx="80" cy="80" r="70" fill="#00386E"/>
  <path d="M133 33C147 52 151 78 140 102C129 128 105 144 78 143C52 142 28 126 18 102C15 94 19 82 29 76C40 69 50 73 57 83C69 100 88 103 105 94C126 82 136 58 133 33Z" fill="#002F60"/>
  <path d="M18 101C25 82 39 77 52 88C64 98 73 106 91 103C108 100 119 90 137 82C132 119 102 145 66 140C43 136 26 122 18 101Z" fill="#F7FBFF"/>
  <path d="M20 100C31 84 44 84 58 98C73 113 91 115 111 103C119 98 127 94 137 91C130 123 102 143 70 138C47 135 29 121 20 100Z" fill="#11A9E8"/>
  <path d="M30 116C43 106 56 107 71 119C88 132 108 129 128 113C114 134 89 145 63 137C50 133 39 126 30 116Z" fill="#F7FBFF"/>
  <path d="M35 121C47 116 58 119 72 129C85 138 101 136 117 125C103 138 82 143 62 137C51 134 42 128 35 121Z" fill="#00386E"/>
  <path d="M52 89C44 80 33 79 25 87C22 71 29 57 43 50C50 47 57 48 62 54C67 60 68 70 63 78C60 82 56 85 52 89Z" fill="#0AB7EB"/>
  <path d="M58 83C49 76 48 62 56 54C64 46 78 49 84 60C74 62 66 70 58 83Z" fill="#F7FBFF"/>
  <path d="M66 87C72 74 84 66 99 66C116 66 128 76 137 90C124 96 112 107 96 110C83 112 72 104 66 87Z" fill="#004E8D"/>
  <path d="M54 41C68 25 94 22 115 34C99 41 82 46 62 45C59 45 56 43 54 41Z" fill="#F7FBFF"/>
  <path d="M58 44C77 48 96 43 115 35C128 44 136 58 138 75C126 69 114 63 98 62C80 61 67 69 59 82C66 69 67 56 58 44Z" fill="#00386E"/>
  <path d="M65 34L59 39L65 41L72 39L77 43L83 41L80 36L72 34L69 29L65 34Z" fill="#F7FBFF"/>
  <path d="M86 31L82 36L88 39L95 37L101 42L107 40L103 34L94 32L91 27L86 31Z" fill="#F7FBFF"/>
  <path d="M100 47L93 51L98 56L106 55L112 61L119 58L116 51L108 50L105 44L100 47Z" fill="#F7FBFF"/>
  <path d="M76 53L71 58L75 63L83 61L87 66L94 64L91 58L83 56L81 51L76 53Z" fill="#F7FBFF"/>
  <path d="M117 40L122 49L130 56M105 50L120 62L137 73M91 58L107 74L125 86M84 76L102 88L119 101M118 62L119 86L112 112M101 37L105 50L107 74M130 56L125 86L137 91M71 34L83 56L84 76M91 58L118 62M102 88L137 73" stroke="#42D9FF" stroke-width="1.5" stroke-linecap="round" opacity=".95"/>
  <g fill="#55E8FF">
    <circle cx="122" cy="49" r="3.2"/>
    <circle cx="130" cy="56" r="3.2"/>
    <circle cx="120" cy="62" r="3.2"/>
    <circle cx="137" cy="73" r="3.2"/>
    <circle cx="107" cy="74" r="3.2"/>
    <circle cx="125" cy="86" r="3.2"/>
    <circle cx="119" cy="101" r="3.2"/>
    <circle cx="102" cy="88" r="3.2"/>
    <circle cx="105" cy="50" r="3.2"/>
    <circle cx="91" cy="58" r="3.2"/>
    <circle cx="84" cy="76" r="3.2"/>
    <circle cx="101" cy="37" r="3.2"/>
  </g>
  <circle cx="80" cy="80" r="70" stroke="#F7FBFF" stroke-width="4"/>
  <circle cx="80" cy="80" r="75" stroke="#B8C7D2" stroke-width="2"/>
</svg>
