<svg width="160" height="160" viewBox="0 0 160 160" fill="none" xmlns="http://www.w3.org/2000/svg">
  <rect width="160" height="160" rx="30" fill="#F7FBFF"/>
  <path d="M38 36C50 25 68 20 81 25C93 30 101 42 102 56" stroke="#005D9B" stroke-width="5" stroke-linecap="round" stroke-dasharray="1 10"/>
  <path d="M122 36C110 25 92 20 79 25C67 30 59 42 58 56" stroke="#005D9B" stroke-width="5" stroke-linecap="round" stroke-dasharray="1 10"/>
  <circle cx="80" cy="25" r="4" fill="#0B79BF"/>
  <circle cx="54" cy="37" r="4" fill="#0B79BF"/>
  <circle cx="106" cy="37" r="4" fill="#0B79BF"/>
  <path d="M80 47L65 60H95L80 47Z" fill="#00386E"/>
  <path d="M73 60H87L92 88H68L73 60Z" fill="#00386E"/>
  <path d="M48 96C62 88 74 88 88 96C102 104 113 103 126 94" stroke="#0B79BF" stroke-width="9" stroke-linecap="round"/>
  <path d="M34 114C48 106 62 106 78 114C96 123 112 122 128 110" stroke="#004E8D" stroke-width="8" stroke-linecap="round"/>
  <path d="M32 122H128" stroke="#B8C7D2" stroke-width="3" stroke-linecap="round"/>
  <path d="M50 52L80 47L110 52" stroke="#42D9FF" stroke-width="2"/>
  <path d="M80 47V28" stroke="#42D9FF" stroke-width="2"/>
</svg>
